# xmcd CD database file
#
# Track frame offsets:
#	11504
#	47249
#	76751
#	108846
#	143423
#	201594
#	235836
#	257738
#	294586
#	330206
#
# Disc length: 4550 seconds
#
# Revision: 1
# Processed by: cddbd v1.5PL3 Copyright (c) Steve Scherf et al.
# Submitted via: CDex 1.51
#
DISCID=8a112d0a
DTITLE=Stephane Belmondo - Wonderland
DYEAR=2003
DGENRE=Jazz
TTITLE0=Creepin'
TTITLE1=You Will Know
TTITLE2=All in Love is Fair
TTITLE3=Too High
TTITLE4=The Secret Life of Plants
TTITLE5=Girl Blue
TTITLE6=Visions
TTITLE7=Another Star
TTITLE8=You've Got it Bad Girl
TTITLE9=Too Shy to Say
EXTD=YEAR: 2003
EXTT0=
EXTT1=
EXTT2=
EXTT3=
EXTT4=
EXTT5=
EXTT6=
EXTT7=
EXTT8=
EXTT9=
PLAYORDER=
